<mxfile host="app.diagrams.net" modified="2021-09-15T08:26:53.971Z" agent="5.0 (Windows NT 10.0; Win64; x64) AppleWebKit/537.36 (KHTML, like Gecko) Chrome/93.0.4577.63 Safari/537.36" etag="QF7GDA7QUWx8Y4HItTFK" version="15.2.7" type="github">
  <diagram id="7vaSENDy1p2W6-R5xNP_" name="Page-1">
    <mxGraphModel dx="868" dy="482" grid="1" gridSize="10" guides="1" tooltips="1" connect="1" arrows="1" fold="1" page="1" pageScale="1" pageWidth="827" pageHeight="1169" math="0" shadow="0">
      <root>
        <mxCell id="0" />
        <mxCell id="1" parent="0" />
        <mxCell id="0lBaA-p3WLzCFRZYkVHC-1" value="&lt;font style=&quot;font-size: 21px&quot;&gt;Bắt đầu&lt;/font&gt;" style="ellipse;whiteSpace=wrap;html=1;" vertex="1" parent="1">
          <mxGeometry x="370" y="210" width="120" height="80" as="geometry" />
        </mxCell>
        <mxCell id="0lBaA-p3WLzCFRZYkVHC-2" value="Nhập a ,b&amp;nbsp;" style="shape=parallelogram;perimeter=parallelogramPerimeter;whiteSpace=wrap;html=1;fixedSize=1;" vertex="1" parent="1">
          <mxGeometry x="370" y="330" width="120" height="60" as="geometry" />
        </mxCell>
        <mxCell id="0lBaA-p3WLzCFRZYkVHC-3" value="a = 0" style="rhombus;whiteSpace=wrap;html=1;" vertex="1" parent="1">
          <mxGeometry x="350" y="430" width="160" height="80" as="geometry" />
        </mxCell>
        <mxCell id="0lBaA-p3WLzCFRZYkVHC-4" value="b = 0" style="rhombus;whiteSpace=wrap;html=1;" vertex="1" parent="1">
          <mxGeometry x="350" y="540" width="160" height="80" as="geometry" />
        </mxCell>
        <mxCell id="0lBaA-p3WLzCFRZYkVHC-5" value="&lt;font style=&quot;font-size: 15px&quot;&gt;Phương trình vô nghiệm&lt;/font&gt;" style="rounded=0;whiteSpace=wrap;html=1;" vertex="1" parent="1">
          <mxGeometry x="370" y="660" width="120" height="60" as="geometry" />
        </mxCell>
        <mxCell id="0lBaA-p3WLzCFRZYkVHC-6" value="&lt;font style=&quot;font-size: 19px&quot;&gt;Kết thúc&lt;/font&gt;" style="ellipse;whiteSpace=wrap;html=1;" vertex="1" parent="1">
          <mxGeometry x="370" y="760" width="120" height="80" as="geometry" />
        </mxCell>
        <mxCell id="0lBaA-p3WLzCFRZYkVHC-8" value="Phương trình có nghiệm x = -b/a" style="rounded=0;whiteSpace=wrap;html=1;" vertex="1" parent="1">
          <mxGeometry x="590" y="450" width="190" height="40" as="geometry" />
        </mxCell>
        <mxCell id="0lBaA-p3WLzCFRZYkVHC-9" value="&lt;span&gt;Phương trình có vô số nghiệm&lt;/span&gt;" style="rounded=0;whiteSpace=wrap;html=1;" vertex="1" parent="1">
          <mxGeometry x="590" y="560" width="190" height="40" as="geometry" />
        </mxCell>
        <mxCell id="0lBaA-p3WLzCFRZYkVHC-10" value="" style="endArrow=classic;html=1;entryX=0;entryY=0.5;entryDx=0;entryDy=0;exitX=1;exitY=0.5;exitDx=0;exitDy=0;" edge="1" parent="1" source="0lBaA-p3WLzCFRZYkVHC-3" target="0lBaA-p3WLzCFRZYkVHC-8">
          <mxGeometry width="50" height="50" relative="1" as="geometry">
            <mxPoint x="390" y="660" as="sourcePoint" />
            <mxPoint x="440" y="610" as="targetPoint" />
          </mxGeometry>
        </mxCell>
        <mxCell id="0lBaA-p3WLzCFRZYkVHC-12" value="" style="endArrow=classic;html=1;exitX=0.5;exitY=1;exitDx=0;exitDy=0;entryX=0.5;entryY=0;entryDx=0;entryDy=0;" edge="1" parent="1" source="0lBaA-p3WLzCFRZYkVHC-1" target="0lBaA-p3WLzCFRZYkVHC-2">
          <mxGeometry width="50" height="50" relative="1" as="geometry">
            <mxPoint x="420" y="340" as="sourcePoint" />
            <mxPoint x="470" y="290" as="targetPoint" />
          </mxGeometry>
        </mxCell>
        <mxCell id="0lBaA-p3WLzCFRZYkVHC-13" value="" style="endArrow=classic;html=1;exitX=0.5;exitY=1;exitDx=0;exitDy=0;entryX=0.5;entryY=0;entryDx=0;entryDy=0;" edge="1" parent="1" source="0lBaA-p3WLzCFRZYkVHC-2" target="0lBaA-p3WLzCFRZYkVHC-3">
          <mxGeometry width="50" height="50" relative="1" as="geometry">
            <mxPoint x="390" y="460" as="sourcePoint" />
            <mxPoint x="440" y="410" as="targetPoint" />
          </mxGeometry>
        </mxCell>
        <mxCell id="0lBaA-p3WLzCFRZYkVHC-14" value="" style="endArrow=classic;html=1;exitX=0.5;exitY=1;exitDx=0;exitDy=0;entryX=0.5;entryY=0;entryDx=0;entryDy=0;" edge="1" parent="1" source="0lBaA-p3WLzCFRZYkVHC-3" target="0lBaA-p3WLzCFRZYkVHC-4">
          <mxGeometry width="50" height="50" relative="1" as="geometry">
            <mxPoint x="390" y="560" as="sourcePoint" />
            <mxPoint x="440" y="510" as="targetPoint" />
          </mxGeometry>
        </mxCell>
        <mxCell id="0lBaA-p3WLzCFRZYkVHC-15" value="" style="endArrow=classic;html=1;entryX=0.5;entryY=0;entryDx=0;entryDy=0;" edge="1" parent="1" target="0lBaA-p3WLzCFRZYkVHC-5">
          <mxGeometry width="50" height="50" relative="1" as="geometry">
            <mxPoint x="430" y="620" as="sourcePoint" />
            <mxPoint x="440" y="610" as="targetPoint" />
          </mxGeometry>
        </mxCell>
        <mxCell id="0lBaA-p3WLzCFRZYkVHC-16" value="" style="endArrow=classic;html=1;exitX=0.5;exitY=1;exitDx=0;exitDy=0;entryX=0.5;entryY=0;entryDx=0;entryDy=0;" edge="1" parent="1" source="0lBaA-p3WLzCFRZYkVHC-5" target="0lBaA-p3WLzCFRZYkVHC-6">
          <mxGeometry width="50" height="50" relative="1" as="geometry">
            <mxPoint x="390" y="660" as="sourcePoint" />
            <mxPoint x="440" y="610" as="targetPoint" />
          </mxGeometry>
        </mxCell>
        <mxCell id="0lBaA-p3WLzCFRZYkVHC-17" value="" style="endArrow=classic;html=1;entryX=0;entryY=0.5;entryDx=0;entryDy=0;" edge="1" parent="1" target="0lBaA-p3WLzCFRZYkVHC-9">
          <mxGeometry width="50" height="50" relative="1" as="geometry">
            <mxPoint x="510" y="580" as="sourcePoint" />
            <mxPoint x="560" y="530" as="targetPoint" />
          </mxGeometry>
        </mxCell>
        <mxCell id="0lBaA-p3WLzCFRZYkVHC-18" value="Đ" style="text;strokeColor=none;fillColor=none;align=left;verticalAlign=top;spacingLeft=4;spacingRight=4;overflow=hidden;rotatable=0;points=[[0,0.5],[1,0.5]];portConstraint=eastwest;fontSize=17;fontStyle=1" vertex="1" parent="1">
          <mxGeometry x="450" y="510" width="20" height="26" as="geometry" />
        </mxCell>
        <mxCell id="0lBaA-p3WLzCFRZYkVHC-19" value="Đ" style="text;strokeColor=none;fillColor=none;align=left;verticalAlign=top;spacingLeft=4;spacingRight=4;overflow=hidden;rotatable=0;points=[[0,0.5],[1,0.5]];portConstraint=eastwest;fontSize=17;fontStyle=1" vertex="1" parent="1">
          <mxGeometry x="540" y="540" width="20" height="26" as="geometry" />
        </mxCell>
        <mxCell id="0lBaA-p3WLzCFRZYkVHC-20" value="S" style="text;strokeColor=none;fillColor=none;align=left;verticalAlign=top;spacingLeft=4;spacingRight=4;overflow=hidden;rotatable=0;points=[[0,0.5],[1,0.5]];portConstraint=eastwest;fontSize=17;fontStyle=1" vertex="1" parent="1">
          <mxGeometry x="450" y="620" width="20" height="26" as="geometry" />
        </mxCell>
        <mxCell id="0lBaA-p3WLzCFRZYkVHC-21" value="S" style="text;strokeColor=none;fillColor=none;align=left;verticalAlign=top;spacingLeft=4;spacingRight=4;overflow=hidden;rotatable=0;points=[[0,0.5],[1,0.5]];portConstraint=eastwest;fontSize=17;fontStyle=1" vertex="1" parent="1">
          <mxGeometry x="540" y="424" width="20" height="26" as="geometry" />
        </mxCell>
        <mxCell id="0lBaA-p3WLzCFRZYkVHC-22" value="" style="endArrow=classic;html=1;fontSize=17;" edge="1" parent="1">
          <mxGeometry width="50" height="50" relative="1" as="geometry">
            <mxPoint x="830" y="740" as="sourcePoint" />
            <mxPoint x="430" y="740" as="targetPoint" />
          </mxGeometry>
        </mxCell>
        <mxCell id="0lBaA-p3WLzCFRZYkVHC-23" value="" style="endArrow=none;html=1;fontSize=17;" edge="1" parent="1">
          <mxGeometry width="50" height="50" relative="1" as="geometry">
            <mxPoint x="830" y="740" as="sourcePoint" />
            <mxPoint x="830" y="470" as="targetPoint" />
          </mxGeometry>
        </mxCell>
        <mxCell id="0lBaA-p3WLzCFRZYkVHC-28" value="" style="endArrow=none;html=1;fontSize=17;" edge="1" parent="1">
          <mxGeometry width="50" height="50" relative="1" as="geometry">
            <mxPoint x="780" y="585" as="sourcePoint" />
            <mxPoint x="830" y="585" as="targetPoint" />
            <Array as="points">
              <mxPoint x="810" y="585" />
            </Array>
          </mxGeometry>
        </mxCell>
        <mxCell id="0lBaA-p3WLzCFRZYkVHC-29" value="" style="endArrow=none;html=1;fontSize=17;exitX=1;exitY=0.5;exitDx=0;exitDy=0;" edge="1" parent="1" source="0lBaA-p3WLzCFRZYkVHC-8">
          <mxGeometry width="50" height="50" relative="1" as="geometry">
            <mxPoint x="680" y="650" as="sourcePoint" />
            <mxPoint x="830" y="470" as="targetPoint" />
          </mxGeometry>
        </mxCell>
      </root>
    </mxGraphModel>
  </diagram>
</mxfile>
